<mxfile host="app.diagrams.net" modified="2020-08-28T19:29:28.254Z" agent="5.0 (Macintosh)" etag="iO5hD4LoVT0_afN1LfsE" version="13.6.5" type="github" pages="4">
  <diagram id="TFyXDV-cg0tM3V66A1fj" name="IAC">
    <mxGraphModel dx="1026" dy="551" grid="1" gridSize="10" guides="1" tooltips="1" connect="1" arrows="1" fold="1" page="1" pageScale="1" pageWidth="850" pageHeight="1100" math="0" shadow="0">
      <root>
        <mxCell id="0" />
        <mxCell id="1" parent="0" />
        <mxCell id="J1sv5dAZzMVL9DsfnprP-9" value="DevOps" style="shape=umlActor;verticalLabelPosition=bottom;labelBackgroundColor=#ffffff;verticalAlign=top;html=1;outlineConnect=0;" parent="1" vertex="1">
          <mxGeometry x="41" y="230" width="30" height="60" as="geometry" />
        </mxCell>
        <mxCell id="J1sv5dAZzMVL9DsfnprP-11" value="" style="endArrow=classic;html=1;exitX=0.5;exitY=0.5;exitDx=0;exitDy=0;exitPerimeter=0;entryX=0.08;entryY=0.5;entryDx=0;entryDy=0;entryPerimeter=0;" parent="1" source="J1sv5dAZzMVL9DsfnprP-9" target="dBY0gJwxrKFhVHe41V3D-3" edge="1">
          <mxGeometry width="50" height="50" relative="1" as="geometry">
            <mxPoint x="301" y="400" as="sourcePoint" />
            <mxPoint x="111" y="260" as="targetPoint" />
          </mxGeometry>
        </mxCell>
        <mxCell id="J1sv5dAZzMVL9DsfnprP-12" value="Terraform" style="rounded=1;whiteSpace=wrap;html=1;fillColor=#cdeb8b;strokeColor=#36393d;" parent="1" vertex="1">
          <mxGeometry x="191" y="230" width="70" height="55" as="geometry" />
        </mxCell>
        <mxCell id="J1sv5dAZzMVL9DsfnprP-20" value="Terraform - only for Infrastructure Automation" style="text;html=1;strokeColor=#36393d;fillColor=#cdeb8b;align=center;verticalAlign=middle;whiteSpace=wrap;rounded=0;" parent="1" vertex="1">
          <mxGeometry x="81" y="90" width="169" height="49" as="geometry" />
        </mxCell>
        <mxCell id="J1sv5dAZzMVL9DsfnprP-21" value="Infrastructure Automation + &lt;br&gt;&lt;div&gt;Configuration Management- Ansible, Chef and Puppet&lt;/div&gt;" style="text;html=1;strokeColor=#36393d;fillColor=#ffcc99;align=center;verticalAlign=middle;whiteSpace=wrap;rounded=0;" parent="1" vertex="1">
          <mxGeometry x="650" y="78" width="161" height="51" as="geometry" />
        </mxCell>
        <mxCell id="dBY0gJwxrKFhVHe41V3D-2" value="&lt;div&gt;Ansible&lt;/div&gt;&lt;div&gt;/Puppet&lt;/div&gt;" style="rounded=1;whiteSpace=wrap;html=1;fillColor=#ffcc99;strokeColor=#36393d;" parent="1" vertex="1">
          <mxGeometry x="680" y="230" width="80" height="50" as="geometry" />
        </mxCell>
        <mxCell id="dBY0gJwxrKFhVHe41V3D-3" value="" style="aspect=fixed;pointerEvents=1;shadow=0;dashed=0;html=1;strokeColor=none;labelPosition=center;verticalLabelPosition=bottom;verticalAlign=top;align=center;fillColor=#00188D;shape=mxgraph.azure.laptop" parent="1" vertex="1">
          <mxGeometry x="106" y="240" width="62.5" height="37.5" as="geometry" />
        </mxCell>
        <mxCell id="dBY0gJwxrKFhVHe41V3D-6" value="" style="endArrow=classic;html=1;exitX=0.92;exitY=0.5;exitDx=0;exitDy=0;exitPerimeter=0;entryX=0;entryY=0.5;entryDx=0;entryDy=0;" parent="1" source="dBY0gJwxrKFhVHe41V3D-3" target="J1sv5dAZzMVL9DsfnprP-12" edge="1">
          <mxGeometry width="50" height="50" relative="1" as="geometry">
            <mxPoint x="66" y="270" as="sourcePoint" />
            <mxPoint x="120.66640000000007" y="270" as="targetPoint" />
          </mxGeometry>
        </mxCell>
        <mxCell id="dBY0gJwxrKFhVHe41V3D-7" value="" style="ellipse;shape=cloud;whiteSpace=wrap;html=1;fillColor=#cce5ff;strokeColor=#36393d;" parent="1" vertex="1">
          <mxGeometry x="276.5" y="59" width="370" height="440" as="geometry" />
        </mxCell>
        <mxCell id="8dZ_agHF5Dz7czKtTeTP-1" value="Jenkins" style="rounded=0;whiteSpace=wrap;html=1;fillColor=#ffff88;strokeColor=#36393d;" parent="1" vertex="1">
          <mxGeometry x="419" y="157" width="85" height="30" as="geometry" />
        </mxCell>
        <mxCell id="8dZ_agHF5Dz7czKtTeTP-3" value="SonarQube" style="rounded=0;whiteSpace=wrap;html=1;fillColor=#ffff88;strokeColor=#36393d;" parent="1" vertex="1">
          <mxGeometry x="419" y="197" width="85" height="30" as="geometry" />
        </mxCell>
        <mxCell id="8dZ_agHF5Dz7czKtTeTP-4" value="Nexus" style="rounded=0;whiteSpace=wrap;html=1;fillColor=#ffff88;strokeColor=#36393d;" parent="1" vertex="1">
          <mxGeometry x="419" y="237" width="85" height="30" as="geometry" />
        </mxCell>
        <mxCell id="8dZ_agHF5Dz7czKtTeTP-5" value="Tomcat" style="rounded=0;whiteSpace=wrap;html=1;fillColor=#ffff88;strokeColor=#36393d;" parent="1" vertex="1">
          <mxGeometry x="419" y="277" width="85" height="30" as="geometry" />
        </mxCell>
        <mxCell id="8dZ_agHF5Dz7czKtTeTP-6" value="QA" style="rounded=0;whiteSpace=wrap;html=1;fillColor=#ffff88;strokeColor=#36393d;" parent="1" vertex="1">
          <mxGeometry x="419" y="317" width="85" height="30" as="geometry" />
        </mxCell>
        <mxCell id="8dZ_agHF5Dz7czKtTeTP-7" value="PROD" style="rounded=0;whiteSpace=wrap;html=1;fillColor=#ffff88;strokeColor=#36393d;" parent="1" vertex="1">
          <mxGeometry x="419" y="357" width="85" height="30" as="geometry" />
        </mxCell>
        <mxCell id="8dZ_agHF5Dz7czKtTeTP-8" value="" style="endArrow=classic;html=1;entryX=0;entryY=0.75;entryDx=0;entryDy=0;exitX=1;exitY=0.5;exitDx=0;exitDy=0;" parent="1" source="J1sv5dAZzMVL9DsfnprP-12" target="8dZ_agHF5Dz7czKtTeTP-1" edge="1">
          <mxGeometry width="50" height="50" relative="1" as="geometry">
            <mxPoint x="261" y="260" as="sourcePoint" />
            <mxPoint x="431" y="360" as="targetPoint" />
          </mxGeometry>
        </mxCell>
        <mxCell id="8dZ_agHF5Dz7czKtTeTP-9" value="" style="endArrow=classic;html=1;entryX=0;entryY=0.5;entryDx=0;entryDy=0;" parent="1" target="8dZ_agHF5Dz7czKtTeTP-3" edge="1">
          <mxGeometry width="50" height="50" relative="1" as="geometry">
            <mxPoint x="260" y="259" as="sourcePoint" />
            <mxPoint x="429" y="189.5" as="targetPoint" />
          </mxGeometry>
        </mxCell>
        <mxCell id="8dZ_agHF5Dz7czKtTeTP-11" value="" style="endArrow=classic;html=1;entryX=0;entryY=0.5;entryDx=0;entryDy=0;exitX=1;exitY=0.5;exitDx=0;exitDy=0;" parent="1" source="J1sv5dAZzMVL9DsfnprP-12" target="8dZ_agHF5Dz7czKtTeTP-4" edge="1">
          <mxGeometry width="50" height="50" relative="1" as="geometry">
            <mxPoint x="270" y="269" as="sourcePoint" />
            <mxPoint x="429" y="222" as="targetPoint" />
          </mxGeometry>
        </mxCell>
        <mxCell id="8dZ_agHF5Dz7czKtTeTP-12" value="" style="endArrow=classic;html=1;entryX=0;entryY=0.5;entryDx=0;entryDy=0;exitX=1;exitY=0.5;exitDx=0;exitDy=0;" parent="1" source="J1sv5dAZzMVL9DsfnprP-12" target="8dZ_agHF5Dz7czKtTeTP-5" edge="1">
          <mxGeometry width="50" height="50" relative="1" as="geometry">
            <mxPoint x="271" y="267.5" as="sourcePoint" />
            <mxPoint x="429" y="262" as="targetPoint" />
          </mxGeometry>
        </mxCell>
        <mxCell id="8dZ_agHF5Dz7czKtTeTP-13" value="" style="endArrow=classic;html=1;entryX=0;entryY=0.5;entryDx=0;entryDy=0;exitX=1;exitY=0.5;exitDx=0;exitDy=0;" parent="1" source="J1sv5dAZzMVL9DsfnprP-12" target="8dZ_agHF5Dz7czKtTeTP-6" edge="1">
          <mxGeometry width="50" height="50" relative="1" as="geometry">
            <mxPoint x="271" y="267.5" as="sourcePoint" />
            <mxPoint x="429" y="302" as="targetPoint" />
          </mxGeometry>
        </mxCell>
        <mxCell id="8dZ_agHF5Dz7czKtTeTP-14" value="" style="endArrow=classic;html=1;entryX=0;entryY=0.5;entryDx=0;entryDy=0;exitX=1;exitY=0.5;exitDx=0;exitDy=0;" parent="1" source="J1sv5dAZzMVL9DsfnprP-12" target="8dZ_agHF5Dz7czKtTeTP-7" edge="1">
          <mxGeometry width="50" height="50" relative="1" as="geometry">
            <mxPoint x="271" y="267.5" as="sourcePoint" />
            <mxPoint x="429" y="342" as="targetPoint" />
          </mxGeometry>
        </mxCell>
        <mxCell id="8dZ_agHF5Dz7czKtTeTP-15" value="&lt;h1&gt;AWS cloud&lt;br&gt;&lt;/h1&gt;&lt;p&gt;&lt;br&gt;&lt;/p&gt;" style="text;html=1;strokeColor=none;fillColor=none;spacing=5;spacingTop=-20;whiteSpace=wrap;overflow=hidden;rounded=0;" parent="1" vertex="1">
          <mxGeometry x="390" y="390" width="190" height="40" as="geometry" />
        </mxCell>
        <mxCell id="8dZ_agHF5Dz7czKtTeTP-16" value="" style="endArrow=classic;html=1;exitX=0;exitY=0.5;exitDx=0;exitDy=0;entryX=1;entryY=0.5;entryDx=0;entryDy=0;" parent="1" source="dBY0gJwxrKFhVHe41V3D-2" target="8dZ_agHF5Dz7czKtTeTP-1" edge="1">
          <mxGeometry width="50" height="50" relative="1" as="geometry">
            <mxPoint x="400" y="409" as="sourcePoint" />
            <mxPoint x="450" y="359" as="targetPoint" />
            <Array as="points" />
          </mxGeometry>
        </mxCell>
        <mxCell id="8dZ_agHF5Dz7czKtTeTP-18" value="" style="endArrow=classic;html=1;exitX=0;exitY=0.5;exitDx=0;exitDy=0;entryX=1;entryY=0.5;entryDx=0;entryDy=0;" parent="1" source="dBY0gJwxrKFhVHe41V3D-2" target="8dZ_agHF5Dz7czKtTeTP-3" edge="1">
          <mxGeometry width="50" height="50" relative="1" as="geometry">
            <mxPoint x="700" y="265" as="sourcePoint" />
            <mxPoint x="514" y="182" as="targetPoint" />
            <Array as="points" />
          </mxGeometry>
        </mxCell>
        <mxCell id="8dZ_agHF5Dz7czKtTeTP-19" value="" style="endArrow=classic;html=1;exitX=0;exitY=0.5;exitDx=0;exitDy=0;entryX=1;entryY=0.5;entryDx=0;entryDy=0;" parent="1" source="dBY0gJwxrKFhVHe41V3D-2" target="8dZ_agHF5Dz7czKtTeTP-4" edge="1">
          <mxGeometry width="50" height="50" relative="1" as="geometry">
            <mxPoint x="700" y="265" as="sourcePoint" />
            <mxPoint x="514" y="222" as="targetPoint" />
            <Array as="points" />
          </mxGeometry>
        </mxCell>
        <mxCell id="8dZ_agHF5Dz7czKtTeTP-20" value="" style="endArrow=classic;html=1;exitX=0;exitY=0.5;exitDx=0;exitDy=0;entryX=1;entryY=0.5;entryDx=0;entryDy=0;" parent="1" source="dBY0gJwxrKFhVHe41V3D-2" target="8dZ_agHF5Dz7czKtTeTP-5" edge="1">
          <mxGeometry width="50" height="50" relative="1" as="geometry">
            <mxPoint x="700" y="265" as="sourcePoint" />
            <mxPoint x="514" y="262" as="targetPoint" />
            <Array as="points" />
          </mxGeometry>
        </mxCell>
        <mxCell id="8dZ_agHF5Dz7czKtTeTP-21" value="" style="endArrow=classic;html=1;exitX=0;exitY=0.5;exitDx=0;exitDy=0;entryX=1;entryY=0.25;entryDx=0;entryDy=0;" parent="1" source="dBY0gJwxrKFhVHe41V3D-2" target="8dZ_agHF5Dz7czKtTeTP-6" edge="1">
          <mxGeometry width="50" height="50" relative="1" as="geometry">
            <mxPoint x="700" y="265" as="sourcePoint" />
            <mxPoint x="514" y="302" as="targetPoint" />
            <Array as="points" />
          </mxGeometry>
        </mxCell>
        <mxCell id="8dZ_agHF5Dz7czKtTeTP-22" value="" style="endArrow=classic;html=1;entryX=1;entryY=0.5;entryDx=0;entryDy=0;exitX=0;exitY=0.5;exitDx=0;exitDy=0;" parent="1" source="dBY0gJwxrKFhVHe41V3D-2" target="8dZ_agHF5Dz7czKtTeTP-7" edge="1">
          <mxGeometry width="50" height="50" relative="1" as="geometry">
            <mxPoint x="690" y="249" as="sourcePoint" />
            <mxPoint x="514" y="334.5" as="targetPoint" />
            <Array as="points" />
          </mxGeometry>
        </mxCell>
        <mxCell id="8dZ_agHF5Dz7czKtTeTP-23" value="GitHub" style="rounded=1;whiteSpace=wrap;html=1;fillColor=#cdeb8b;strokeColor=#36393d;" parent="1" vertex="1">
          <mxGeometry x="91" y="179" width="91" height="30" as="geometry" />
        </mxCell>
        <mxCell id="8dZ_agHF5Dz7czKtTeTP-24" value="&lt;i&gt;&lt;u&gt;&lt;font style=&quot;font-size: 20px&quot;&gt;&lt;b&gt;&lt;font style=&quot;font-size: 20px&quot;&gt;Infrastructure Automation + Configuration Management&lt;/font&gt;&lt;/b&gt;&lt;/font&gt;&lt;/u&gt;&lt;/i&gt;" style="text;html=1;strokeColor=none;fillColor=none;align=center;verticalAlign=middle;whiteSpace=wrap;rounded=0;" parent="1" vertex="1">
          <mxGeometry x="201.5" y="19" width="548.5" height="40" as="geometry" />
        </mxCell>
        <mxCell id="8dZ_agHF5Dz7czKtTeTP-25" value="" style="endArrow=classic;html=1;entryX=0.5;entryY=1;entryDx=0;entryDy=0;" parent="1" source="dBY0gJwxrKFhVHe41V3D-3" target="8dZ_agHF5Dz7czKtTeTP-23" edge="1">
          <mxGeometry width="50" height="50" relative="1" as="geometry">
            <mxPoint x="380" y="299" as="sourcePoint" />
            <mxPoint x="140" y="209" as="targetPoint" />
          </mxGeometry>
        </mxCell>
        <mxCell id="8dZ_agHF5Dz7czKtTeTP-26" value="GitHub" style="rounded=1;whiteSpace=wrap;html=1;fillColor=#ffcc99;strokeColor=#36393d;" parent="1" vertex="1">
          <mxGeometry x="771" y="167" width="80" height="30" as="geometry" />
        </mxCell>
        <mxCell id="8dZ_agHF5Dz7czKtTeTP-27" value="DevOps" style="shape=umlActor;verticalLabelPosition=bottom;labelBackgroundColor=#ffffff;verticalAlign=top;html=1;outlineConnect=0;" parent="1" vertex="1">
          <mxGeometry x="866" y="220" width="30" height="60" as="geometry" />
        </mxCell>
        <mxCell id="8dZ_agHF5Dz7czKtTeTP-28" value="" style="aspect=fixed;pointerEvents=1;shadow=0;dashed=0;html=1;strokeColor=none;labelPosition=center;verticalLabelPosition=bottom;verticalAlign=top;align=center;fillColor=#00188D;shape=mxgraph.azure.laptop" parent="1" vertex="1">
          <mxGeometry x="780" y="237" width="62.5" height="37.5" as="geometry" />
        </mxCell>
        <mxCell id="8dZ_agHF5Dz7czKtTeTP-29" value="" style="endArrow=classic;html=1;entryX=0.5;entryY=1;entryDx=0;entryDy=0;exitX=0.5;exitY=0;exitDx=0;exitDy=0;exitPerimeter=0;" parent="1" source="8dZ_agHF5Dz7czKtTeTP-28" target="8dZ_agHF5Dz7czKtTeTP-26" edge="1">
          <mxGeometry width="50" height="50" relative="1" as="geometry">
            <mxPoint x="790" y="310" as="sourcePoint" />
            <mxPoint x="146.5" y="219" as="targetPoint" />
          </mxGeometry>
        </mxCell>
        <mxCell id="8dZ_agHF5Dz7czKtTeTP-30" value="" style="endArrow=classic;html=1;exitX=0.08;exitY=0.5;exitDx=0;exitDy=0;exitPerimeter=0;entryX=1;entryY=0.5;entryDx=0;entryDy=0;" parent="1" source="8dZ_agHF5Dz7czKtTeTP-28" target="dBY0gJwxrKFhVHe41V3D-2" edge="1">
          <mxGeometry width="50" height="50" relative="1" as="geometry">
            <mxPoint x="400" y="230" as="sourcePoint" />
            <mxPoint x="450" y="180" as="targetPoint" />
          </mxGeometry>
        </mxCell>
        <mxCell id="8dZ_agHF5Dz7czKtTeTP-31" value="" style="endArrow=classic;html=1;exitX=0.5;exitY=0.5;exitDx=0;exitDy=0;exitPerimeter=0;entryX=0.896;entryY=0.32;entryDx=0;entryDy=0;entryPerimeter=0;" parent="1" source="8dZ_agHF5Dz7czKtTeTP-27" target="8dZ_agHF5Dz7czKtTeTP-28" edge="1">
          <mxGeometry width="50" height="50" relative="1" as="geometry">
            <mxPoint x="851" y="255.75" as="sourcePoint" />
            <mxPoint x="826" y="255" as="targetPoint" />
            <Array as="points" />
          </mxGeometry>
        </mxCell>
      </root>
    </mxGraphModel>
  </diagram>
  <diagram id="ruKodaS1hW5FslekkdMw" name="Puppet - AWS">
    <mxGraphModel dx="1026" dy="551" grid="1" gridSize="10" guides="1" tooltips="1" connect="1" arrows="1" fold="1" page="1" pageScale="1" pageWidth="850" pageHeight="1100" math="0" shadow="0">
      <root>
        <mxCell id="vHgNM0XFdGwPTJdBXIeD-0" />
        <mxCell id="vHgNM0XFdGwPTJdBXIeD-1" parent="vHgNM0XFdGwPTJdBXIeD-0" />
        <mxCell id="ZE-bfDQi5WiKSCNzYP7d-0" value="AWS Cloud" style="ellipse;shape=cloud;whiteSpace=wrap;html=1;fillColor=#dae8fc;strokeColor=#6c8ebf;" parent="vHgNM0XFdGwPTJdBXIeD-1" vertex="1">
          <mxGeometry x="330" y="50" width="360" height="340" as="geometry" />
        </mxCell>
        <mxCell id="sIL1OkYaan-vigZlNCsB-0" value="Puppet " style="rounded=1;whiteSpace=wrap;html=1;fillColor=#cdeb8b;strokeColor=#36393d;" parent="vHgNM0XFdGwPTJdBXIeD-1" vertex="1">
          <mxGeometry x="140" y="400" width="120" height="60" as="geometry" />
        </mxCell>
        <mxCell id="sIL1OkYaan-vigZlNCsB-1" value="" style="endArrow=classic;html=1;exitX=0.558;exitY=0.033;exitDx=0;exitDy=0;entryX=0.16;entryY=0.55;entryDx=0;entryDy=0;entryPerimeter=0;exitPerimeter=0;" parent="vHgNM0XFdGwPTJdBXIeD-1" source="sIL1OkYaan-vigZlNCsB-0" target="ZE-bfDQi5WiKSCNzYP7d-0" edge="1">
          <mxGeometry width="50" height="50" relative="1" as="geometry">
            <mxPoint x="400" y="370" as="sourcePoint" />
            <mxPoint x="450" y="320" as="targetPoint" />
          </mxGeometry>
        </mxCell>
        <mxCell id="sIL1OkYaan-vigZlNCsB-2" value="AWS access keys + secret keys" style="edgeLabel;html=1;align=center;verticalAlign=middle;resizable=0;points=[];fontSize=13;" parent="sIL1OkYaan-vigZlNCsB-1" vertex="1" connectable="0">
          <mxGeometry x="-0.4049" y="1" relative="1" as="geometry">
            <mxPoint x="-11.85" y="-15.18" as="offset" />
          </mxGeometry>
        </mxCell>
        <mxCell id="sIL1OkYaan-vigZlNCsB-3" value="" style="endArrow=classic;html=1;exitX=1;exitY=0.5;exitDx=0;exitDy=0;entryX=0.31;entryY=0.8;entryDx=0;entryDy=0;entryPerimeter=0;" parent="vHgNM0XFdGwPTJdBXIeD-1" source="sIL1OkYaan-vigZlNCsB-0" target="ZE-bfDQi5WiKSCNzYP7d-0" edge="1">
          <mxGeometry width="50" height="50" relative="1" as="geometry">
            <mxPoint x="400" y="370" as="sourcePoint" />
            <mxPoint x="450" y="320" as="targetPoint" />
          </mxGeometry>
        </mxCell>
        <mxCell id="sIL1OkYaan-vigZlNCsB-4" value="&lt;font style=&quot;font-size: 13px&quot;&gt;AWS sdk gems&lt;/font&gt;" style="edgeLabel;html=1;align=center;verticalAlign=middle;resizable=0;points=[];" parent="sIL1OkYaan-vigZlNCsB-3" vertex="1" connectable="0">
          <mxGeometry x="-0.4448" y="-1" relative="1" as="geometry">
            <mxPoint x="28.78" y="-20.7" as="offset" />
          </mxGeometry>
        </mxCell>
        <mxCell id="sIL1OkYaan-vigZlNCsB-5" value="&lt;u&gt;&lt;i&gt;&lt;b&gt;&lt;font style=&quot;font-size: 20px&quot;&gt;Puppet - Infrastructure Automation + Configuration Management&lt;/font&gt;&lt;/b&gt;&lt;/i&gt;&lt;/u&gt;" style="text;html=1;strokeColor=none;fillColor=none;align=center;verticalAlign=middle;whiteSpace=wrap;rounded=0;fontSize=13;" parent="vHgNM0XFdGwPTJdBXIeD-1" vertex="1">
          <mxGeometry x="130" y="40" width="680" height="20" as="geometry" />
        </mxCell>
      </root>
    </mxGraphModel>
  </diagram>
  <diagram name="Ansible - AWS" id="ZKsBByDP_Etw1XmUrYVO">
    <mxGraphModel dx="1026" dy="551" grid="1" gridSize="10" guides="1" tooltips="1" connect="1" arrows="1" fold="1" page="1" pageScale="1" pageWidth="850" pageHeight="1100" math="0" shadow="0">
      <root>
        <mxCell id="VKihHpQgRH6S5C-WkGqN-0" />
        <mxCell id="VKihHpQgRH6S5C-WkGqN-1" parent="VKihHpQgRH6S5C-WkGqN-0" />
        <mxCell id="VKihHpQgRH6S5C-WkGqN-2" value="AWS Cloud" style="ellipse;shape=cloud;whiteSpace=wrap;html=1;fillColor=#dae8fc;strokeColor=#6c8ebf;" parent="VKihHpQgRH6S5C-WkGqN-1" vertex="1">
          <mxGeometry x="370" y="64" width="290" height="271" as="geometry" />
        </mxCell>
        <mxCell id="VKihHpQgRH6S5C-WkGqN-3" value="&lt;div&gt;Ansible &lt;br&gt;&lt;/div&gt;&lt;div&gt;Mgmt Node&lt;/div&gt;" style="rounded=1;whiteSpace=wrap;html=1;fillColor=#cdeb8b;strokeColor=#36393d;" parent="VKihHpQgRH6S5C-WkGqN-1" vertex="1">
          <mxGeometry x="180" y="355" width="120" height="60" as="geometry" />
        </mxCell>
        <mxCell id="VKihHpQgRH6S5C-WkGqN-4" value="" style="endArrow=classic;html=1;exitX=0.558;exitY=0.033;exitDx=0;exitDy=0;entryX=0.16;entryY=0.55;entryDx=0;entryDy=0;entryPerimeter=0;exitPerimeter=0;" parent="VKihHpQgRH6S5C-WkGqN-1" source="VKihHpQgRH6S5C-WkGqN-3" target="VKihHpQgRH6S5C-WkGqN-2" edge="1">
          <mxGeometry width="50" height="50" relative="1" as="geometry">
            <mxPoint x="400" y="315" as="sourcePoint" />
            <mxPoint x="450" y="265" as="targetPoint" />
          </mxGeometry>
        </mxCell>
        <mxCell id="VKihHpQgRH6S5C-WkGqN-5" value="AWS access keys + secret keys" style="edgeLabel;html=1;align=center;verticalAlign=middle;resizable=0;points=[];fontSize=13;fontStyle=2" parent="VKihHpQgRH6S5C-WkGqN-4" vertex="1" connectable="0">
          <mxGeometry x="-0.4049" y="1" relative="1" as="geometry">
            <mxPoint x="-11.85" y="-15.18" as="offset" />
          </mxGeometry>
        </mxCell>
        <mxCell id="VKihHpQgRH6S5C-WkGqN-6" value="" style="endArrow=classic;html=1;exitX=1;exitY=0.5;exitDx=0;exitDy=0;entryX=0.31;entryY=0.8;entryDx=0;entryDy=0;entryPerimeter=0;" parent="VKihHpQgRH6S5C-WkGqN-1" source="VKihHpQgRH6S5C-WkGqN-3" target="VKihHpQgRH6S5C-WkGqN-2" edge="1">
          <mxGeometry width="50" height="50" relative="1" as="geometry">
            <mxPoint x="400" y="315" as="sourcePoint" />
            <mxPoint x="450" y="265" as="targetPoint" />
          </mxGeometry>
        </mxCell>
        <mxCell id="VKihHpQgRH6S5C-WkGqN-7" value="Boto Framework" style="edgeLabel;html=1;align=center;verticalAlign=middle;resizable=0;points=[];fontSize=13;fontStyle=2" parent="VKihHpQgRH6S5C-WkGqN-6" vertex="1" connectable="0">
          <mxGeometry x="-0.4448" y="-1" relative="1" as="geometry">
            <mxPoint x="28.78" y="-20.7" as="offset" />
          </mxGeometry>
        </mxCell>
        <mxCell id="VKihHpQgRH6S5C-WkGqN-8" value="&lt;u&gt;&lt;i&gt;&lt;b&gt;&lt;font style=&quot;font-size: 20px&quot;&gt;Ansible - Infrastructure Automation + Configuration Management&lt;/font&gt;&lt;/b&gt;&lt;/i&gt;&lt;/u&gt;" style="text;html=1;strokeColor=none;fillColor=none;align=center;verticalAlign=middle;whiteSpace=wrap;rounded=0;fontSize=13;" parent="VKihHpQgRH6S5C-WkGqN-1" vertex="1">
          <mxGeometry x="130" y="40" width="680" height="20" as="geometry" />
        </mxCell>
      </root>
    </mxGraphModel>
  </diagram>
  <diagram id="MrDQUS5VcGgYU1jrwUnb" name="Puppet - Ec2">
    <mxGraphModel dx="1026" dy="551" grid="1" gridSize="10" guides="1" tooltips="1" connect="1" arrows="1" fold="1" page="1" pageScale="1" pageWidth="850" pageHeight="1100" math="0" shadow="0">
      <root>
        <mxCell id="gyEn4x_eUqlkjrv6wbom-0" />
        <mxCell id="gyEn4x_eUqlkjrv6wbom-1" parent="gyEn4x_eUqlkjrv6wbom-0" />
        <mxCell id="dPkSFoxrA3zLCOiNibIG-0" value="AWS Cloud" style="ellipse;shape=cloud;whiteSpace=wrap;html=1;fillColor=#dae8fc;strokeColor=#6c8ebf;" parent="gyEn4x_eUqlkjrv6wbom-1" vertex="1">
          <mxGeometry x="330" y="50" width="360" height="340" as="geometry" />
        </mxCell>
        <mxCell id="dPkSFoxrA3zLCOiNibIG-1" value="Puppet " style="rounded=1;whiteSpace=wrap;html=1;fillColor=#cdeb8b;strokeColor=#36393d;" parent="gyEn4x_eUqlkjrv6wbom-1" vertex="1">
          <mxGeometry x="140" y="400" width="120" height="60" as="geometry" />
        </mxCell>
        <mxCell id="dPkSFoxrA3zLCOiNibIG-2" value="" style="endArrow=classic;html=1;exitX=0.558;exitY=0.033;exitDx=0;exitDy=0;entryX=0.16;entryY=0.55;entryDx=0;entryDy=0;entryPerimeter=0;exitPerimeter=0;" parent="gyEn4x_eUqlkjrv6wbom-1" source="dPkSFoxrA3zLCOiNibIG-1" target="dPkSFoxrA3zLCOiNibIG-0" edge="1">
          <mxGeometry width="50" height="50" relative="1" as="geometry">
            <mxPoint x="400" y="370" as="sourcePoint" />
            <mxPoint x="450" y="320" as="targetPoint" />
          </mxGeometry>
        </mxCell>
        <mxCell id="dPkSFoxrA3zLCOiNibIG-3" value="AWS access keys + secret keys" style="edgeLabel;html=1;align=center;verticalAlign=middle;resizable=0;points=[];fontSize=13;" parent="dPkSFoxrA3zLCOiNibIG-2" vertex="1" connectable="0">
          <mxGeometry x="-0.4049" y="1" relative="1" as="geometry">
            <mxPoint x="-11.85" y="-15.18" as="offset" />
          </mxGeometry>
        </mxCell>
        <mxCell id="dPkSFoxrA3zLCOiNibIG-4" value="" style="endArrow=classic;html=1;exitX=1;exitY=0.5;exitDx=0;exitDy=0;entryX=0.31;entryY=0.8;entryDx=0;entryDy=0;entryPerimeter=0;" parent="gyEn4x_eUqlkjrv6wbom-1" source="dPkSFoxrA3zLCOiNibIG-1" target="dPkSFoxrA3zLCOiNibIG-0" edge="1">
          <mxGeometry width="50" height="50" relative="1" as="geometry">
            <mxPoint x="400" y="370" as="sourcePoint" />
            <mxPoint x="450" y="320" as="targetPoint" />
          </mxGeometry>
        </mxCell>
        <mxCell id="dPkSFoxrA3zLCOiNibIG-5" value="&lt;font style=&quot;font-size: 13px&quot;&gt;AWS sdk gems&lt;/font&gt;" style="edgeLabel;html=1;align=center;verticalAlign=middle;resizable=0;points=[];" parent="dPkSFoxrA3zLCOiNibIG-4" vertex="1" connectable="0">
          <mxGeometry x="-0.4448" y="-1" relative="1" as="geometry">
            <mxPoint x="28.78" y="-20.7" as="offset" />
          </mxGeometry>
        </mxCell>
        <mxCell id="dPkSFoxrA3zLCOiNibIG-6" value="&lt;u&gt;&lt;i&gt;&lt;b&gt;&lt;font style=&quot;font-size: 20px&quot;&gt;Puppet - Infrastructure Automation + Configuration Management&lt;/font&gt;&lt;/b&gt;&lt;/i&gt;&lt;/u&gt;" style="text;html=1;strokeColor=none;fillColor=none;align=center;verticalAlign=middle;whiteSpace=wrap;rounded=0;fontSize=13;" parent="gyEn4x_eUqlkjrv6wbom-1" vertex="1">
          <mxGeometry x="130" y="40" width="680" height="20" as="geometry" />
        </mxCell>
      </root>
    </mxGraphModel>
  </diagram>
</mxfile>
